<svg xmlns="http://www.w3.org/2000/svg" xmlns:xlink="http://www.w3.org/1999/xlink" version="1.1" x="0px" y="0px" viewBox="0 0 100 100" enable-background="new 0 0 100 100" xml:space="preserve"><g><path fill="#000000" d="M88.885,60.824c1.599-5.598-1.045-8.978-3.795-10.171c-1.17-0.507-2.454-0.703-3.75-0.59   c0.241-3.13,0.141-5.168,0.137-5.207c0-9.249-14.49-16.497-32.989-16.5C29.99,28.359,15.5,35.607,15.502,44.777   c-0.031,0.59-0.68,14.58,6.272,25.849l-0.05,0.031c0.062,0.1,0.13,0.19,0.193,0.289c-7.366,2.613-11.397,6.215-11.397,10.227   c0,6.879,13.518,14.189,38.57,14.189s38.57-7.311,38.57-14.189c0-5.509-8.379-9.135-12.444-10.571   c0.311-0.504,0.61-1.019,0.904-1.562C85.148,69.148,87.998,63.929,88.885,60.824z M84.66,81.173   c0,5.292-14.608,11.189-35.57,11.189s-35.57-5.897-35.57-11.189c0-2.7,3.823-5.553,10.248-7.685   c5.082,6.042,12.863,8.881,24.164,8.881h0.977c11.435,0,19.512-3.032,24.59-9.234c0.097,0.061,0.2,0.115,0.313,0.154   C80.3,75.505,84.66,78.674,84.66,81.173z M73.893,66.829c-0.413,0.809-0.825,1.546-1.261,2.251   c-0.074,0.12-0.122,0.246-0.159,0.375c-4.378,6.754-11.876,9.914-23.564,9.914h-0.977c-11.614,0-19.072-3.176-23.442-9.97   c-0.036-0.11-0.082-0.218-0.145-0.32c-6.468-10.46-5.853-24.009-5.844-24.223c0-7.314,13.733-13.497,29.988-13.5   c16.256,0.003,29.989,6.186,29.991,13.577c0.001,0.028,0.137,2.854-0.317,6.865c-0.059,0.517,0.154,1.027,0.563,1.348   c0.409,0.321,0.955,0.408,1.442,0.229c1.28-0.468,2.604-0.458,3.729,0.03C84.729,53.767,87.34,55.31,86,60   c-1.145,4.009-4.366,6.042-9.573,6.042c-0.347,0-0.705-0.009-1.123-0.029C74.728,65.985,74.161,66.303,73.893,66.829z"></path><path fill="#000000" d="M78.443,62.902c-0.496,0-0.96-0.245-1.24-0.655c-0.282-0.414-0.338-0.94-0.152-1.404   c0.37-0.919,0.66-1.939,0.863-3.031c0.057-0.305,0.207-0.584,0.429-0.801c0.872-0.848,2.214-1.131,3.243-0.685   c0.969,0.42,1.896,1.618,1.325,3.615c-0.312,1.095-1.308,2.938-4.457,2.961C78.451,62.902,78.447,62.902,78.443,62.902z"></path><path fill="#000000" d="M48.042,34.856c-14.823,0-26.84,4.484-26.84,10.016s12.017,10.016,26.84,10.016   c14.823,0,26.839-4.484,26.839-10.016S62.865,34.856,48.042,34.856z M48.465,51.821l-11.613-7.379   c-1.05-0.667-1.629-1.486-1.629-2.305c0-0.819,0.579-1.638,1.628-2.306c0.777-0.494,1.789-0.744,3.006-0.744   c1.999,0,4.382,0.687,6.376,1.838l2.175,1.256l2.173-1.256c1.996-1.151,4.38-1.839,6.377-1.839c1.218,0,2.229,0.25,3.006,0.744   c1.05,0.667,1.628,1.485,1.628,2.305c0,0.819-0.578,1.639-1.628,2.306l-11.531,7.34c-0.003,0-0.013,0.002-0.026,0.002   L48.465,51.821z"></path><path fill="#000000" d="M53.498,24.191c-0.34,0-0.682-0.115-0.963-0.351c-1.561-1.31-3.756-4.782-0.89-8.545   c0.619-0.812,1.376-1.65,2.109-2.46c1.568-1.734,3.52-3.893,3.375-5.239c-0.017-0.161-0.069-0.652-0.954-1.287   c-1.097-0.789-2.059-0.828-2.713-0.115C53,6.7,52.922,7.362,53.094,7.562c0.542,0.627,0.472,1.574-0.155,2.116   c-0.627,0.54-1.575,0.471-2.116-0.155c-1.237-1.433-1.055-3.734,0.424-5.352c1.296-1.418,3.823-2.346,6.676-0.298   c1.311,0.94,2.047,2.086,2.188,3.405c0.287,2.681-1.96,5.166-4.134,7.569c-0.723,0.799-1.405,1.555-1.947,2.266   c-1.837,2.411,0.194,4.229,0.432,4.429c0.634,0.532,0.717,1.479,0.185,2.113C54.352,24.009,53.926,24.191,53.498,24.191z"></path><path fill="#000000" d="M45,27c-0.384,0-0.769-0.147-1.062-0.44c-0.585-0.586-0.584-1.536,0.002-2.121   c0.754-0.753,1.455-2.252,1.322-3.904c-0.148-1.835-1.26-3.512-3.305-4.983c-3.669-2.64-3.337-5.764-2.412-7.92   c0.676-1.575,2.702-2.557,4.818-2.329c2.463,0.263,4.248,2.037,4.775,4.745c0.159,0.813-0.373,1.601-1.186,1.759   c-0.814,0.161-1.601-0.373-1.759-1.186c-0.343-1.764-1.346-2.242-2.127-2.333c-0.947-0.109-1.674,0.325-1.765,0.526   c-0.756,1.762-0.335,3.049,1.407,4.302c3.479,2.502,4.391,5.285,4.543,7.178c0.225,2.786-1.041,5.118-2.193,6.268   C45.767,26.854,45.383,27,45,27z"></path><path fill="#000000" d="M37.165,24.191c-0.295,0-0.594-0.087-0.854-0.268c-0.68-0.473-0.849-1.408-0.376-2.088   c1.1-1.583,0.479-2.611-2.083-5.101c-0.352-0.342-0.698-0.679-1.019-1.014c-2.347-2.447-1.27-5.246,0.027-6.531   c0.588-0.583,1.538-0.579,2.122,0.01c0.579,0.585,0.578,1.527,0,2.11c-0.416,0.435-0.963,1.313,0.016,2.334   c0.297,0.31,0.619,0.622,0.944,0.938c2.064,2.006,5.184,5.038,2.456,8.964C38.107,23.967,37.64,24.191,37.165,24.191z"></path></g></svg>